<svg id="Layer_1" data-name="Layer 1" xmlns="http://www.w3.org/2000/svg" xmlns:xlink="http://www.w3.org/1999/xlink" viewBox="0 0 1130.4627 910.9448"><defs><style>.cls-1{fill:none;}.cls-2{clip-path:url(#clip-path);}.cls-3{fill:#333;}.cls-4{clip-path:url(#clip-path-2);}.cls-5{fill:url(#linear-gradient);}.cls-6{clip-path:url(#clip-path-3);}.cls-7{fill:url(#linear-gradient-2);}.cls-8{clip-path:url(#clip-path-4);}.cls-9{fill:url(#linear-gradient-3);}.cls-10{clip-path:url(#clip-path-5);}.cls-11{fill:url(#linear-gradient-4);}.cls-12{clip-path:url(#clip-path-6);}.cls-13{fill:url(#linear-gradient-5);}.cls-14{clip-path:url(#clip-path-7);}.cls-15{fill:url(#linear-gradient-6);}</style><clipPath id="clip-path" transform="translate(13.1847 -23.6376)"><rect class="cls-1" width="1080" height="1080"/></clipPath><clipPath id="clip-path-2" transform="translate(13.1847 -23.6376)"><path class="cls-1" d="M447.036,414.815c1.152,2.316,2.342,4.613,3.388,6.989l71.523-.876c-.627-2.075-1.441-4.063-2.123-6.113Z"/></clipPath><linearGradient id="linear-gradient" y1="1079.999" x2="1" y2="1079.999" gradientTransform="matrix(0.0002, 469.5641, 469.5641, -0.0002, -506644.3221, 106.7978)" gradientUnits="userSpaceOnUse"><stop offset="0" stop-color="#00a99d"/><stop offset="0.222" stop-color="#00a99d"/><stop offset="0.6808" stop-color="#29abe2"/><stop offset="1" stop-color="#27abde"/></linearGradient><clipPath id="clip-path-3" transform="translate(13.1847 -23.6376)"><path class="cls-1" d="M74.473,414.815A234.3374,234.3374,0,0,0,71.836,554.77h71.632a165.9285,165.9285,0,0,1-9.552-29.325,168.6051,168.6051,0,0,1-3.975-34.37,165.0792,165.0792,0,0,1,17.463-76.26Z"/></clipPath><linearGradient id="linear-gradient-2" y1="1079.9926" y2="1079.9926" gradientTransform="matrix(0.0001, 469.5641, 469.5641, -0.0001, -507020.9487, 385.0717)" xlink:href="#linear-gradient"/><clipPath id="clip-path-4" transform="translate(13.1847 -23.6376)"><path class="cls-1" d="M294.355,254.257C191.648,255.516,105.183,322.56,74.473,414.815h72.931c27.075-54.44,82.907-92.286,147.778-93.082,66.318-.813,124.131,37.336,151.854,93.082h72.788c-31.075-93.403-119.107-160.569-222.537-160.576-.981,0-1.948.006-2.932.018"/></clipPath><linearGradient id="linear-gradient-3" y1="1080.0941" y2="1080.0941" gradientTransform="matrix(0, 469.5641, 469.5641, 0, -506876.3053, 212.2894)" xlink:href="#linear-gradient"/><clipPath id="clip-path-5" transform="translate(13.1847 -23.6376)"><path class="cls-1" d="M806.407,247.981c-105.02,1.287-193.044,71.36-221.854,166.834h71.998c25.803-57.781,83.354-98.532,150.683-99.358,68.8-.843,128.513,40.197,154.897,99.358h58.589l13.28-.163c-29.177-96.616-118.949-166.689-224.659-166.689q-1.4655,0-2.934.018"/></clipPath><linearGradient id="linear-gradient-4" y1="1080.0956" y2="1080.0956" gradientTransform="matrix(0, 469.5626, 469.5626, 0, -506363.211, 206.8394)" xlink:href="#linear-gradient"/><clipPath id="clip-path-6" transform="translate(13.1847 -23.6376)"><path class="cls-1" d="M71.836,554.77c28.736,98.729,120.44,170.343,228.273,169.022,79.819-.979,149.747-41.765,191.409-103.162H400.317a166.3574,166.3574,0,0,1-101.035,35.685c-69.643.854-129.915-41.202-155.814-101.545Z"/></clipPath><linearGradient id="linear-gradient-5" y1="1079.951" y2="1079.951" gradientTransform="matrix(0, 469.5641, 469.5641, 0, -506824.5799, 305.9946)" xlink:href="#linear-gradient"/><clipPath id="clip-path-7" transform="translate(13.1847 -23.6376)"><path class="cls-1" d="M960.878,553.467c-.207.443-.456.861-.666,1.303a166.8087,166.8087,0,0,1-245.294,65.86H619.292a234.3921,234.3921,0,0,0,192.87,96.885c104.322-1.279,191.942-70.435,221.327-164.937Z"/></clipPath><linearGradient id="linear-gradient-6" y1="1079.9306" y2="1079.9306" gradientTransform="matrix(0, 469.5626, 469.5626, 0, -506268.6063, 277.8348)" xlink:href="#linear-gradient"/></defs><title>dcc_logo</title><g class="cls-2"><path class="cls-3" d="M252.001,484.2452c0,28.468-18.579,45.729-48.752,45.729H174.652v-91.845h28.597c30.173,0,48.752,17.655,48.752,46.116m-48.752,35.849c23.982,0,36.5-13.442,36.5-35.849,0-22.399-12.518-36.364-36.5-36.364H186.647v72.213Z" transform="translate(13.1847 -23.6376)"/><path class="cls-3" d="M299.01,531.1647c-20.557,0-35.712-14.4959-35.712-37.425,0-22.8,14.624-37.1669,35.712-37.1669,20.951,0,34.651,14.7609,34.651,34.53a64.5387,64.5387,0,0,1-.394,7.2439H275.55c.925,14.6321,11.2,22.664,23.46,22.664,10.805,0,17.655-5.531,20.292-13.3059h12.912c-3.691,13.177-15.283,23.46-33.204,23.46m-23.323-42.57H321.28c.129-14.094-10.411-21.8759-22.801-21.8759-11.729,0-21.482,7.7819-22.792,21.8759" transform="translate(13.1847 -23.6376)"/><polygon class="cls-3" points="366.977 434.125 389.512 495.267 411.911 434.125 424.694 434.125 396.362 506.337 382.397 506.337 354.065 434.125 366.977 434.125"/><path class="cls-3" d="M454.5691,531.1647c-20.557,0-35.712-14.4959-35.712-37.425,0-22.8,14.624-37.1669,35.712-37.1669,20.952,0,34.651,14.7609,34.651,34.53a64.5417,64.5417,0,0,1-.393,7.2439h-57.718c.925,14.6321,11.2,22.664,23.46,22.664,10.805,0,17.656-5.531,20.292-13.3059h12.912c-3.69,13.177-15.283,23.46-33.204,23.46m-23.323-42.57h45.593c.129-14.094-10.411-21.8759-22.801-21.8759-11.729,0-21.481,7.7819-22.792,21.8759" transform="translate(13.1847 -23.6376)"/><rect class="cls-3" x="518.1867" y="408.8234" width="11.995" height="97.513"/><path class="cls-3" d="M568.8936,531.1647c-20.421,0-35.969-14.496-35.969-37.425,0-22.8,16.071-37.1669,36.499-37.1669,20.558,0,36.501,14.367,36.501,37.1669,0,22.929-16.473,37.425-37.031,37.425m0-10.548c12.526,0,24.778-8.563,24.778-26.877,0-18.186-11.995-26.756-24.376-26.756-12.654,0-24.119,8.57-24.119,26.756,0,18.314,11.199,26.877,23.717,26.877" transform="translate(13.1847 -23.6376)"/><path class="cls-3" d="M660.7151,456.5719c19.367,0,34.257,14.496,34.257,37.032,0,22.406-14.89,37.561-34.257,37.561-13.177,0-22.535-7.123-27.014-14.496V564.24h-11.995V457.7619h11.995v13.306c4.35-7.638,13.837-14.496,27.014-14.496m-2.509,10.412c-13.04,0-24.505,10.018-24.505,26.756,0,16.996,11.465,26.877,24.505,26.877,13.314,0,24.514-10.009,24.514-27.013,0-16.996-11.2-26.62-24.514-26.62" transform="translate(13.1847 -23.6376)"/><path class="cls-3" d="M741.988,531.1647c-20.557,0-35.713-14.4959-35.713-37.425,0-22.8,14.625-37.1669,35.713-37.1669,20.951,0,34.651,14.7609,34.651,34.53a64.3028,64.3028,0,0,1-.3941,7.2439H718.528c.9249,14.6321,11.2,22.664,23.46,22.664,10.805,0,17.6559-5.531,20.292-13.3059h12.912c-3.69,13.177-15.284,23.46-33.204,23.46m-23.323-42.57h45.5929c.1291-14.094-10.411-21.8759-22.8009-21.8759-11.729,0-21.481,7.7819-22.792,21.8759" transform="translate(13.1847 -23.6376)"/><path class="cls-3" d="M804.416,529.9746H792.421v-72.212h11.995v11.73c4.084-8.04,11.858-13.0489,23.323-13.0489v12.3889h-3.168c-11.464,0-20.155,5.138-20.155,21.876Z" transform="translate(13.1847 -23.6376)"/><path class="cls-3" d="M867.1182,531.1646c-16.868,0-28.727-9.2289-29.522-22.4059h12.389c.659,6.9859,6.85,12.2519,16.996,12.2519,9.494,0,14.761-4.743,14.761-10.669,0-16.079-42.691-6.7209-42.691-33.6059,0-11.07,10.412-20.1631,26.483-20.1631,15.942,0,26.49,8.57,27.278,22.672h-11.995c-.522-7.252-6.053-12.526-15.678-12.526-8.827,0-14.101,4.221-14.101,10.0171,0,17.133,41.903,7.7749,42.434,33.6059,0,11.859-10.412,20.823-26.354,20.823" transform="translate(13.1847 -23.6376)"/><path class="cls-3" d="M988.8389,457.7618c.257-7.508-4.744-11.593-11.208-11.593-7.1139,0-11.722,4.479-11.722,10.54,0,5.4029,3.031,9.8809,9.487,16.7309l27.4081,27.544c.7879-1.182,1.5839-2.372,2.3709-3.69l8.9651-15.018h12.9109l-10.805,18.708c-1.7129,3.031-3.425,5.6681-5.274,8.305l20.694,20.6861H1015.98l-11.987-12.1241c-8.8349,9.222-18.716,13.708-31.628,13.708-19.11,0-32.159-10.942-32.159-27.938,0-12.6539,7.252-22.8,21.6191-28.4609-5.6681-6.592-7.9111-11.73-7.9111-18.451,0-11.729,9.358-20.4281,24.248-20.4281,14.495,0,23.323,9.229,22.664,21.481Zm7.2431,52.186-27.013-27.15c-11.4651,4.35-16.867,11.1989-16.867,20.429,0,10.2749,8.1679,18.0489,20.1629,18.0489,9.4881,0,16.867-3.69,23.7171-11.328" transform="translate(13.1847 -23.6376)"/><polygon class="cls-3" points="380.137 573.158 371.615 573.158 353.751 556.114 371.615 539.141 380.137 539.141 362.2 556.114 380.137 573.158"/><path class="cls-3" d="M404.45,554.5557c11.191,0,20.083,5.627,23.934,15.637h-8.08c-2.814-6.231-8.297-9.7119-15.854-9.7119-10.822,0-18.901,7.8539-18.901,20.5329,0,12.599,8.079,20.453,18.901,20.453,7.557,0,13.04-3.481,15.854-9.632h8.08c-3.851,9.93-12.743,15.485-23.934,15.485-14.456,0-25.8-10.822-25.8-26.306,0-15.492,11.344-26.458,25.8-26.458" transform="translate(13.1847 -23.6376)"/><path class="cls-3" d="M456.0889,607.5453c-11.489,0-20.236-8.153-20.236-21.048,0-12.823,9.045-20.904,20.533-20.904,11.561,0,20.534,8.081,20.534,20.904,0,12.895-9.27,21.048-20.831,21.048m0-5.934c7.043,0,13.933-4.815,13.933-15.114,0-10.227-6.746-15.051-13.708-15.051-7.115,0-13.563,4.824-13.563,15.051,0,10.299,6.295,15.114,13.338,15.114" transform="translate(13.1847 -23.6376)"/><path class="cls-3" d="M502.615,565.5933c6.375,0,12.236,3.264,15.05,7.936V552.03h6.817v54.848h-6.817V599.24c-2.444,4.525-7.71,8.305-15.123,8.305-10.894,0-19.271-8.523-19.271-21.12,0-12.679,8.377-20.832,19.344-20.832m1.262,5.853c-7.413,0-13.708,5.411-13.708,14.979,0,9.558,6.295,15.186,13.708,15.186s13.788-5.556,13.788-15.114c0-9.415-6.375-15.051-13.788-15.051" transform="translate(13.1847 -23.6376)"/><path class="cls-3" d="M553.45,607.5445c-11.561,0-20.091-8.152-20.091-21.047,0-12.824,8.232-20.9039,20.091-20.9039,11.778,0,19.488,8.3049,19.488,19.4159a37.5245,37.5245,0,0,1-.217,4.084h-32.464c.514,8.225,6.295,12.743,13.193,12.743,6.078,0,9.929-3.111,11.408-7.485h7.268c-2.074,7.413-8.602,13.193-18.676,13.193m-13.121-23.942h25.647c.072-7.927-5.861-12.301-12.823-12.301-6.601,0-12.084,4.374-12.824,12.301" transform="translate(13.1847 -23.6376)"/><path class="cls-3" d="M588.5664,606.8779h-6.745v-40.617h6.745v6.6c2.3-4.526,6.665-7.339,13.113-7.339v6.961h-1.777c-6.447,0-11.336,2.895-11.336,12.309Z" transform="translate(13.1847 -23.6376)"/><path class="cls-3" d="M623.8291,607.5449c-9.4871,0-16.152-5.186-16.603-12.599h6.971c.37,3.924,3.851,6.891,9.56,6.891,5.338,0,8.304-2.67,8.304-6.006,0-9.037-24.014-3.778-24.014-18.893,0-6.231,5.8519-11.344,14.897-11.344,8.965,0,14.8979,4.815,15.34,12.751h-6.745c-.298-4.076-3.409-7.043-8.819-7.043-4.969,0-7.928,2.372-7.928,5.636,0,9.631,23.564,4.374,23.862,18.893,0,6.673-5.853,11.714-14.825,11.714" transform="translate(13.1847 -23.6376)"/><path class="cls-3" d="M685.1875,565.5938c10.082,0,16.675,5.186,18.749,13.716h-7.26c-1.407-4.897-5.483-8.008-11.489-8.008-7.412,0-12.8961,5.266-12.8961,15.195,0,10.082,5.4841,15.34,12.8961,15.34,6.006,0,10.002-2.887,11.489-8h7.26c-2.074,8.072-8.667,13.708-18.749,13.708-11.561,0-19.794-8.152-19.794-21.048,0-12.751,8.233-20.903,19.794-20.903" transform="translate(13.1847 -23.6376)"/><rect class="cls-3" x="726.0777" y="528.3925" width="6.745" height="54.848"/><path class="cls-3" d="M767.1357,606.8779h-6.7451v-6.006c-2.589,4.229-7.5569,6.601-12.9679,6.601-9.3421,0-16.674-5.782-16.674-17.422v-23.79h6.664v22.905c0,8.225,4.5269,12.445,11.3449,12.445,6.9621,0,11.633-4.293,11.633-13.04v-22.31h6.7451Z" transform="translate(13.1847 -23.6376)"/><path class="cls-3" d="M800.4765,565.5933c10.967,0,19.264,8.153,19.264,20.832,0,12.597-8.37,21.12-19.264,21.12-7.412,0-12.679-3.706-15.194-8.153v7.486h-6.746V552.03h6.746v21.788c2.588-4.518,7.999-8.225,15.194-8.225m-1.415,5.853c-7.332,0-13.779,5.636-13.779,15.051,0,9.558,6.447,15.114,13.779,15.114,7.493,0,13.788-5.628,13.788-15.186,0-9.568-6.295-14.979-13.788-14.979" transform="translate(13.1847 -23.6376)"/><polygon class="cls-3" points="861.007 556.114 843.07 539.141 851.593 539.141 869.529 556.114 851.593 573.158 843.07 573.158 861.007 556.114"/></g><g class="cls-4"><rect class="cls-5" x="454.8336" y="390.0809" width="59.3156" height="56.4572" transform="translate(-141.8105 422.4522) rotate(-43.2947)"/></g><g class="cls-6"><rect class="cls-7" x="25.9121" y="404.6875" width="157.9008" height="160.2101" transform="translate(-290.7229 180.2154) rotate(-43.2948)"/></g><g class="cls-8"><rect class="cls-9" x="80.0198" y="123.3904" width="434.2575" height="422.2732" transform="translate(-135.3446 271.179) rotate(-43.2948)"/></g><g class="cls-10"><rect class="cls-11" x="588.5052" y="116.5641" width="441.5424" height="429.6498" transform="translate(6.1904 621.5176) rotate(-43.2948)"/></g><g class="cls-12"><rect class="cls-13" x="70.5408" y="434.0519" width="422.2724" height="411.7794" transform="translate(-348.994 343.6924) rotate(-43.2948)"/></g><g class="cls-14"><rect class="cls-15" x="618.7713" y="433.1368" width="415.2383" height="404.7893" transform="translate(-197.718 716.0304) rotate(-43.2948)"/></g></svg>